<svg baseProfile="tiny" xmlns="http://www.w3.org/2000/svg" width="30" height="33" viewBox="23.671 14.332 100.391 113.067"><path fill="#15354a" d="M54.498 77.346l-19.385 33.583a8.494 8.494 0 012.796 1.701l19.425-33.65a8.47 8.47 0 01-2.836-1.634z"></path><path class="logo_line1" fill="#15354a" d="M107.548 67.947a8.5 8.5 0 011.65-2.826L40.392 25.395a8.502 8.502 0 01-1.568 2.875l68.724 39.677z"></path><path class="logo_line2" fill="#15354a" d="M107.675 73.884l-68.847 39.75c.253.319.493.653.702 1.018a8.44 8.44 0 01.798 1.896l69.12-39.906a8.366 8.366 0 01-1.243-1.64 8.425 8.425 0 01-.53-1.118z"></path><path fill="#15354a" d="M68.409 72.585l38.857.003a8.484 8.484 0 01-.077-3.271l-38.775-.003a8.49 8.49 0 01-.005 3.271zM55.826 63.583a8.51 8.51 0 011.5-.678L37.888 29.238a8.57 8.57 0 01-1.339.96 8.48 8.48 0 01-1.493.677L54.491 64.54a8.518 8.518 0 011.335-.957z"></path><path class="logo_line3" fill="#15354a" d="M33.749 110.556l.002-79.355a8.483 8.483 0 01-3.271-.079l-.001 79.45a8.488 8.488 0 013.27-.016z"></path><path class="logo_dot1" fill="#153539" d="M28.047 15.469c-4.058 2.345-5.448 7.556-3.104 11.614a8.47 8.47 0 005.535 4.04 8.464 8.464 0 003.271.079 8.318 8.318 0 005.074-2.932 8.502 8.502 0 001.568-2.875 8.473 8.473 0 00-.729-6.812c-2.344-4.062-7.555-5.456-11.615-3.114z"></path><path fill="#153539" d="M67.442 66.697c-2.064-3.574-6.35-5.081-10.116-3.792a8.437 8.437 0 00-1.5.678c-.484.28-.928.604-1.334.957-3 2.616-3.836 7.082-1.771 10.659a8.548 8.548 0 004.612 3.781 8.471 8.471 0 006.995-.67 8.473 8.473 0 004.08-5.727 8.49 8.49 0 00.005-3.271 8.4 8.4 0 00-.971-2.615z"></path><path class="logo_dot3" fill="#153539" d="M39.53 114.65a8.497 8.497 0 00-.702-1.018 8.594 8.594 0 00-.919-1.002 8.494 8.494 0 00-2.796-1.701 8.573 8.573 0 00-1.364-.373 8.474 8.474 0 00-3.271.017 8.425 8.425 0 00-2.563.963c-4.058 2.341-5.45 7.552-3.104 11.612 2.343 4.06 7.55 5.457 11.605 3.115 3.452-1.994 4.967-6.053 3.911-9.717a8.409 8.409 0 00-.797-1.896z"></path><path class="logo_dot2" fill="#153539" d="M122.925 66.502c-2.345-4.062-7.556-5.459-11.614-3.112a8.49 8.49 0 00-3.761 4.558 8.485 8.485 0 00-.28 4.641c.097.438.237.87.407 1.296.15.381.32.756.53 1.118.353.61.775 1.152 1.243 1.64 2.646 2.749 6.916 3.466 10.364 1.476 4.06-2.349 5.454-7.56 3.111-11.617z"></path></svg> 